<svg xmlns="http://www.w3.org/2000/svg" xmlns:xlink="http://www.w3.org/1999/xlink" width="400" zoomAndPan="magnify" viewBox="0 0 300 299.999988" height="400" preserveAspectRatio="xMidYMid meet" version="1.0"><path fill="#4472c4" d="M 172.953125 278.96875 C 156.328125 280.421875 140.175781 279.097656 124.328125 274.492188 C 107.683594 269.652344 92.613281 261.800781 79.117188 250.925781 C 78.203125 250.191406 77.492188 249.460938 76 250.1875 C 61.832031 257.085938 46.980469 257.707031 31.792969 254.683594 C 26.890625 253.707031 22.160156 252.164062 17.992188 249.273438 C 12.292969 245.316406 11.039062 240.191406 15.511719 234.914062 C 21.261719 228.136719 27.695312 221.933594 33.9375 215.582031 C 36.46875 213.011719 39.207031 210.625 41.988281 208.316406 C 43.390625 207.148438 43.6875 206.1875 42.882812 204.46875 C 36.949219 191.773438 33.257812 178.441406 31.710938 164.503906 C 29.675781 146.109375 31.308594 128.058594 37.074219 110.488281 C 47.777344 77.882812 68.226562 53.160156 98.152344 36.4375 C 114.578125 27.257812 132.289062 22.140625 151.109375 20.910156 C 182.03125 18.894531 210.199219 26.761719 235.339844 44.808594 C 259.753906 62.332031 276.742188 85.566406 284.308594 114.671875 C 297.535156 165.519531 284.898438 209.636719 246.847656 245.902344 C 228.722656 263.175781 206.699219 273.398438 181.984375 277.652344 C 179.058594 278.15625 176.113281 278.519531 172.953125 278.96875 M 104.058594 132.1875 C 93.035156 130.648438 82.914062 138.578125 82.507812 149.074219 C 82.132812 158.796875 89.535156 167.191406 99.265625 168.070312 C 109.105469 168.960938 118.078125 162.011719 119.484375 152.40625 C 120.847656 143.113281 114.550781 134.683594 104.058594 132.1875 M 175.742188 140.722656 C 175.011719 139.765625 174.339844 138.757812 173.539062 137.867188 C 168.632812 132.402344 160.449219 130.542969 153.203125 133.210938 C 146.542969 135.664062 141.605469 142.28125 141.347656 149.09375 C 141.054688 156.8125 145.6875 163.953125 152.78125 166.71875 C 160.230469 169.621094 168.726562 167.710938 173.738281 162.003906 C 179.164062 155.828125 179.945312 148.304688 175.742188 140.722656 M 202.003906 157.769531 C 204.746094 163.101562 209.046875 166.484375 214.914062 167.660156 C 222.347656 169.148438 228.628906 166.886719 233.371094 161.03125 C 237.792969 155.570312 238.621094 149.304688 235.753906 142.917969 C 232.742188 136.210938 227.226562 132.507812 219.921875 132.011719 C 206.628906 131.109375 196.011719 144.386719 202.003906 157.769531 Z M 202.003906 157.769531 " fill-opacity="1" fill-rule="nonzero"/><path fill="#fdfeff" d="M 104.261719 132.238281 C 114.550781 134.683594 120.847656 143.113281 119.484375 152.40625 C 118.078125 162.011719 109.105469 168.960938 99.265625 168.070312 C 89.535156 167.191406 82.132812 158.796875 82.507812 149.074219 C 82.914062 138.578125 93.035156 130.648438 104.261719 132.238281 Z M 104.261719 132.238281 " fill-opacity="1" fill-rule="nonzero"/><path fill="#fdfeff" d="M 175.832031 140.875 C 179.945312 148.304688 179.164062 155.828125 173.738281 162.003906 C 168.726562 167.710938 160.230469 169.621094 152.78125 166.71875 C 145.6875 163.953125 141.054688 156.8125 141.347656 149.09375 C 141.605469 142.28125 146.542969 135.664062 153.203125 133.210938 C 160.449219 130.542969 168.632812 132.402344 173.539062 137.867188 C 174.339844 138.757812 175.011719 139.765625 175.832031 140.875 Z M 175.832031 140.875 " fill-opacity="1" fill-rule="nonzero"/><path fill="#fdfeff" d="M 201.910156 157.609375 C 196.011719 144.386719 206.628906 131.109375 219.921875 132.011719 C 227.226562 132.507812 232.742188 136.210938 235.753906 142.917969 C 238.621094 149.304688 237.792969 155.570312 233.371094 161.03125 C 228.628906 166.886719 222.347656 169.148438 214.914062 167.660156 C 209.046875 166.484375 204.746094 163.101562 201.910156 157.609375 Z M 201.910156 157.609375 " fill-opacity="1" fill-rule="nonzero"/></svg>