<svg version="1.1" id="Layer_1" xmlns="http://www.w3.org/2000/svg" xmlns:xlink="http://www.w3.org/1999/xlink" x="0px" y="0px"
	 width="100%" viewBox="0 0 622 583" enable-background="new 0 0 622 583" xml:space="preserve">
<path fill="#FFFFFF" opacity="0.000000" stroke="none" 
	d="
M351.000000,584.000000 
	C234.000000,584.000000 117.500000,584.000000 1.000000,584.000000 
	C1.000000,389.666656 1.000000,195.333328 1.000000,1.000000 
	C208.333328,1.000000 415.666656,1.000000 623.000000,1.000000 
	C623.000000,195.333328 623.000000,389.666656 623.000000,584.000000 
	C532.500000,584.000000 442.000000,584.000000 351.000000,584.000000 
M359.048676,558.729004 
	C365.139496,557.842834 371.253754,557.093079 377.317413,556.049133 
	C428.561401,547.226501 474.226166,526.034363 511.804535,490.228851 
	C590.696045,415.059296 616.900757,323.610077 589.479919,218.208527 
	C573.784485,157.877594 538.567810,109.711540 487.945190,73.385124 
	C435.818329,35.979328 377.411926,19.671808 313.302765,23.852072 
	C274.276306,26.396805 237.555481,37.007259 203.499725,56.034893 
	C141.450699,90.702934 99.054306,141.944153 76.861961,209.530807 
	C64.901390,245.956635 61.517616,283.370941 65.741516,321.500793 
	C68.942574,350.397339 76.600838,378.027161 88.901825,404.342194 
	C90.568581,407.907867 89.957123,409.903015 87.044594,412.321381 
	C81.282127,417.106110 75.604065,422.049988 70.355927,427.385315 
	C57.410885,440.545410 44.070457,453.405792 32.152107,467.457947 
	C22.878935,478.391388 25.475454,489.014557 37.297157,497.217896 
	C45.939484,503.214996 55.742062,506.409393 65.911751,508.434235 
	C97.397682,514.703064 128.194595,513.411194 157.571899,499.114899 
	C160.658936,497.612579 162.138428,499.119232 164.028473,500.641815 
	C192.014404,523.187012 223.260086,539.466370 257.772339,549.494812 
	C290.632690,559.043335 324.117432,561.788269 359.048676,558.729004 
z"/>
<path fill="#4472C4" opacity="1.000000" stroke="none" 
	d="
M358.592773,558.772583 
	C324.117432,561.788269 290.632690,559.043335 257.772339,549.494812 
	C223.260086,539.466370 192.014404,523.187012 164.028473,500.641815 
	C162.138428,499.119232 160.658936,497.612579 157.571899,499.114899 
	C128.194595,513.411194 97.397682,514.703064 65.911751,508.434235 
	C55.742062,506.409393 45.939484,503.214996 37.297157,497.217896 
	C25.475454,489.014557 22.878935,478.391388 32.152107,467.457947 
	C44.070457,453.405792 57.410885,440.545410 70.355927,427.385315 
	C75.604065,422.049988 81.282127,417.106110 87.044594,412.321381 
	C89.957123,409.903015 90.568581,407.907867 88.901825,404.342194 
	C76.600838,378.027161 68.942574,350.397339 65.741516,321.500793 
	C61.517616,283.370941 64.901390,245.956635 76.861961,209.530807 
	C99.054306,141.944153 141.450699,90.702934 203.499725,56.034893 
	C237.555481,37.007259 274.276306,26.396805 313.302765,23.852072 
	C377.411926,19.671808 435.818329,35.979328 487.945190,73.385124 
	C538.567810,109.711540 573.784485,157.877594 589.479919,218.208527 
	C616.900757,323.610077 590.696045,415.059296 511.804535,490.228851 
	C474.226166,526.034363 428.561401,547.226501 377.317413,556.049133 
	C371.253754,557.093079 365.139496,557.842834 358.592773,558.772583 
M215.745926,254.518143 
	C192.885300,251.323837 171.902252,267.759827 171.059998,289.520569 
	C170.280060,309.671661 185.633148,327.071320 205.803955,328.895996 
	C226.211349,330.742065 244.811417,316.336792 247.729507,296.425659 
	C250.552139,277.165924 237.497772,259.687714 215.745926,254.518143 
M364.371582,272.205505 
	C362.855469,270.226471 361.463196,268.136292 359.803040,266.286530 
	C349.636536,254.958939 332.662079,251.105942 317.639099,256.636536 
	C303.835602,261.718109 293.591919,275.438995 293.058838,289.560242 
	C292.454895,305.559326 302.057983,320.358459 316.762939,326.090179 
	C332.214783,332.113007 349.829498,328.153900 360.219940,316.322754 
	C371.466095,303.517212 373.091980,287.926483 364.371582,272.205505 
M418.824738,307.539154 
	C424.512695,318.599182 433.429047,325.606262 445.596069,328.043030 
	C461.006500,331.129425 474.031250,326.444214 483.865082,314.301971 
	C493.028961,302.986969 494.747375,289.995758 488.803406,276.759399 
	C482.560822,262.858002 471.119781,255.179871 455.978973,254.152817 
	C428.418671,252.283310 406.402100,279.802307 418.824738,307.539154 
z"/>
<path fill="#FDFEFF" opacity="1.000000" stroke="none" 
	d="
M216.164276,254.620956 
	C237.497772,259.687714 250.552139,277.165924 247.729507,296.425659 
	C244.811417,316.336792 226.211349,330.742065 205.803955,328.895996 
	C185.633148,327.071320 170.280060,309.671661 171.059998,289.520569 
	C171.902252,267.759827 192.885300,251.323837 216.164276,254.620956 
z"/>
<path fill="#FDFEFF" opacity="1.000000" stroke="none" 
	d="
M364.563354,272.519562 
	C373.091980,287.926483 371.466095,303.517212 360.219940,316.322754 
	C349.829498,328.153900 332.214783,332.113007 316.762939,326.090179 
	C302.057983,320.358459 292.454895,305.559326 293.058838,289.560242 
	C293.591919,275.438995 303.835602,261.718109 317.639099,256.636536 
	C332.662079,251.105942 349.636536,254.958939 359.803040,266.286530 
	C361.463196,268.136292 362.855469,270.226471 364.563354,272.519562 
z"/>
<path fill="#FDFEFF" opacity="1.000000" stroke="none" 
	d="
M418.626892,307.214355 
	C406.402100,279.802307 428.418671,252.283310 455.978973,254.152817 
	C471.119781,255.179871 482.560822,262.858002 488.803406,276.759399 
	C494.747375,289.995758 493.028961,302.986969 483.865082,314.301971 
	C474.031250,326.444214 461.006500,331.129425 445.596069,328.043030 
	C433.429047,325.606262 424.512695,318.599182 418.626892,307.214355 
z"/>
</svg>